<svg width="24" height="25" viewBox="0 0 24 25" fill="none" xmlns="http://www.w3.org/2000/svg">
<path d="M2.83333 23.6654C2.19167 23.6654 1.64236 23.4369 1.18542 22.9799C0.728472 22.523 0.5 21.9737 0.5 21.332V4.9987C0.5 4.35703 0.728472 3.80773 1.18542 3.35078C1.64236 2.89384 2.19167 2.66536 2.83333 2.66536H4V1.4987C4 1.16814 4.11181 0.891059 4.33542 0.667448C4.55903 0.443837 4.83611 0.332031 5.16667 0.332031C5.49722 0.332031 5.77431 0.443837 5.99792 0.667448C6.22153 0.891059 6.33333 1.16814 6.33333 1.4987V2.66536H15.6667V1.4987C15.6667 1.16814 15.7785 0.891059 16.0021 0.667448C16.2257 0.443837 16.5028 0.332031 16.8333 0.332031C17.1639 0.332031 17.441 0.443837 17.6646 0.667448C17.8882 0.891059 18 1.16814 18 1.4987V2.66536H19.1667C19.8083 2.66536 20.3576 2.89384 20.8146 3.35078C21.2715 3.80773 21.5 4.35703 21.5 4.9987V10.4529C21.5 10.7834 21.3882 11.0605 21.1646 11.2841C20.941 11.5077 20.6639 11.6195 20.3333 11.6195C20.0028 11.6195 19.7257 11.5077 19.5021 11.2841C19.2785 11.0605 19.1667 10.7834 19.1667 10.4529V9.66536H2.83333V21.332H9.6C9.93056 21.332 10.2076 21.4438 10.4312 21.6674C10.6549 21.8911 10.7667 22.1681 10.7667 22.4987C10.7667 22.8293 10.6549 23.1063 10.4312 23.3299C10.2076 23.5536 9.93056 23.6654 9.6 23.6654H2.83333ZM18 24.832C16.3861 24.832 15.0104 24.2633 13.8729 23.1258C12.7354 21.9883 12.1667 20.6126 12.1667 18.9987C12.1667 17.3848 12.7354 16.0091 13.8729 14.8716C15.0104 13.7341 16.3861 13.1654 18 13.1654C19.6139 13.1654 20.9896 13.7341 22.1271 14.8716C23.2646 16.0091 23.8333 17.3848 23.8333 18.9987C23.8333 20.6126 23.2646 21.9883 22.1271 23.1258C20.9896 24.2633 19.6139 24.832 18 24.832ZM18.5833 18.7654V16.082C18.5833 15.9265 18.525 15.7904 18.4083 15.6737C18.2917 15.557 18.1556 15.4987 18 15.4987C17.8444 15.4987 17.7083 15.557 17.5917 15.6737C17.475 15.7904 17.4167 15.9265 17.4167 16.082V18.7362C17.4167 18.8918 17.4458 19.0424 17.5042 19.1883C17.5625 19.3341 17.65 19.4654 17.7667 19.582L19.5458 21.3612C19.6625 21.4779 19.7986 21.5362 19.9542 21.5362C20.1097 21.5362 20.2458 21.4779 20.3625 21.3612C20.4792 21.2445 20.5375 21.1084 20.5375 20.9529C20.5375 20.7973 20.4792 20.6612 20.3625 20.5445L18.5833 18.7654Z" fill="white"/>
</svg>
