<svg width="28" height="27" viewBox="0 0 28 27" fill="none" xmlns="http://www.w3.org/2000/svg">
<path d="M20.5 20C21.0556 20 21.5278 19.8056 21.9167 19.4167C22.3056 19.0278 22.5 18.5556 22.5 18C22.5 17.4444 22.3056 16.9722 21.9167 16.5833C21.5278 16.1944 21.0556 16 20.5 16C19.9444 16 19.4722 16.1944 19.0833 16.5833C18.6944 16.9722 18.5 17.4444 18.5 18C18.5 18.5556 18.6944 19.0278 19.0833 19.4167C19.4722 19.8056 19.9444 20 20.5 20ZM20.5 24C21.1667 24 21.7889 23.8444 22.3667 23.5333C22.9444 23.2222 23.4222 22.7889 23.8 22.2333C23.2889 21.9222 22.7556 21.6944 22.2 21.55C21.6444 21.4056 21.0778 21.3333 20.5 21.3333C19.9222 21.3333 19.3556 21.4056 18.8 21.55C18.2444 21.6944 17.7111 21.9222 17.2 22.2333C17.5778 22.7889 18.0556 23.2222 18.6333 23.5333C19.2111 23.8444 19.8333 24 20.5 24ZM20.5 26.6667C18.6556 26.6667 17.0833 26.0167 15.7833 24.7167C14.4833 23.4167 13.8333 21.8444 13.8333 20C13.8333 18.1556 14.4833 16.5833 15.7833 15.2833C17.0833 13.9833 18.6556 13.3333 20.5 13.3333C22.3444 13.3333 23.9167 13.9833 25.2167 15.2833C26.5167 16.5833 27.1667 18.1556 27.1667 20C27.1667 21.8444 26.5167 23.4167 25.2167 24.7167C23.9167 26.0167 22.3444 26.6667 20.5 26.6667ZM7.16667 8H17.8333C18.2111 8 18.5278 7.87222 18.7833 7.61667C19.0389 7.36111 19.1667 7.04444 19.1667 6.66667C19.1667 6.28889 19.0389 5.97222 18.7833 5.71667C18.5278 5.46111 18.2111 5.33333 17.8333 5.33333H7.16667C6.78889 5.33333 6.47222 5.46111 6.21667 5.71667C5.96111 5.97222 5.83333 6.28889 5.83333 6.66667C5.83333 7.04444 5.96111 7.36111 6.21667 7.61667C6.47222 7.87222 6.78889 8 7.16667 8ZM3.16667 24C2.43333 24 1.80556 23.7389 1.28333 23.2167C0.761111 22.6944 0.5 22.0667 0.5 21.3333V2.66667C0.5 1.93333 0.761111 1.30556 1.28333 0.783333C1.80556 0.261111 2.43333 0 3.16667 0H21.8333C22.5667 0 23.1944 0.261111 23.7167 0.783333C24.2389 1.30556 24.5 1.93333 24.5 2.66667V9.93333C24.5 10.3333 24.3333 10.6444 24 10.8667C23.6667 11.0889 23.3111 11.1333 22.9333 11C22.5556 10.8889 22.1611 10.8056 21.75 10.75C21.3389 10.6944 20.9222 10.6667 20.5 10.6667C20.2556 10.6667 20.0278 10.6722 19.8167 10.6833C19.6056 10.6944 19.3889 10.7222 19.1667 10.7667C18.9667 10.7222 18.7444 10.6944 18.5 10.6833C18.2556 10.6722 18.0333 10.6667 17.8333 10.6667H7.16667C6.78889 10.6667 6.47222 10.7944 6.21667 11.05C5.96111 11.3056 5.83333 11.6222 5.83333 12C5.83333 12.3778 5.96111 12.6944 6.21667 12.95C6.47222 13.2056 6.78889 13.3333 7.16667 13.3333H14C13.6 13.7111 13.2389 14.1222 12.9167 14.5667C12.5944 15.0111 12.3111 15.4889 12.0667 16H7.16667C6.78889 16 6.47222 16.1278 6.21667 16.3833C5.96111 16.6389 5.83333 16.9556 5.83333 17.3333C5.83333 17.7111 5.96111 18.0278 6.21667 18.2833C6.47222 18.5389 6.78889 18.6667 7.16667 18.6667H11.2667C11.2222 18.8889 11.1944 19.1056 11.1833 19.3167C11.1722 19.5278 11.1667 19.7556 11.1667 20C11.1667 20.4444 11.1889 20.8667 11.2333 21.2667C11.2778 21.6667 11.3556 22.0556 11.4667 22.4333C11.5778 22.8111 11.5222 23.1667 11.3 23.5C11.0778 23.8333 10.7778 24 10.4 24H3.16667Z" fill="white"/>
</svg>
