<svg width="34" height="22" viewBox="0 0 34 22" fill="none" xmlns="http://www.w3.org/2000/svg">
<path d="M1.5 21.9999C1.075 21.9999 0.71875 21.8561 0.43125 21.5685C0.14375 21.2808 0 20.9244 0 20.4993C0 20.0741 0.14375 19.7179 0.43125 19.4307C0.71875 19.1435 1.075 19 1.5 19H22.923C23.348 19 23.7043 19.1438 23.9918 19.4314C24.2792 19.719 24.423 20.0754 24.423 20.5006C24.423 20.9258 24.2792 21.2819 23.9918 21.5691C23.7043 21.8563 23.348 21.9999 22.923 21.9999H1.5ZM30.8384 19.0422L24.0423 12.2653C23.6808 11.9038 23.5 11.482 23.5 11C23.5 10.5179 23.6808 10.0961 24.0423 9.7346L30.8384 2.9769C31.1153 2.7 31.4634 2.55833 31.8826 2.5519C32.3018 2.5455 32.6563 2.68717 32.9461 2.9769C33.2358 3.26663 33.3807 3.61792 33.3807 4.03075C33.3807 4.44355 33.2358 4.79482 32.9461 5.08455L26.9729 11L32.9461 16.9346C33.2358 17.2072 33.3807 17.5542 33.3807 17.9756C33.3807 18.3969 33.2358 18.7525 32.9461 19.0422C32.6734 19.3191 32.3264 19.4576 31.905 19.4576C31.4837 19.4576 31.1281 19.3191 30.8384 19.0422ZM1.5 12.4999C1.075 12.4999 0.71875 12.3561 0.43125 12.0685C0.14375 11.7809 0 11.4245 0 10.9993C0 10.5741 0.14375 10.2179 0.43125 9.93075C0.71875 9.64358 1.075 9.5 1.5 9.5H17.0769C17.5019 9.5 17.8581 9.6438 18.1456 9.9314C18.4331 10.219 18.5768 10.5754 18.5768 11.0006C18.5768 11.4258 18.4331 11.782 18.1456 12.0692C17.8581 12.3563 17.5019 12.4999 17.0769 12.4999H1.5ZM1.5 2.99995C1.075 2.99995 0.71875 2.85613 0.43125 2.5685C0.14375 2.2809 0 1.9245 0 1.4993C0 1.07413 0.14375 0.717968 0.43125 0.430801C0.71875 0.143601 1.075 0 1.5 0H22.923C23.348 0 23.7043 0.143818 23.9918 0.431451C24.2792 0.719085 24.423 1.07548 24.423 1.50065C24.423 1.92585 24.2792 2.28204 23.9918 2.5692C23.7043 2.85637 23.348 2.99995 22.923 2.99995H1.5Z" fill="white"/>
</svg>
