<svg width="28" height="29" viewBox="0 0 28 29" fill="none" xmlns="http://www.w3.org/2000/svg">
<g clip-path="url(#clip0_715_22034)">
<path d="M14.0007 26.1667C12.3868 26.1667 10.8701 25.8604 9.45065 25.2479C8.03121 24.6354 6.79648 23.8042 5.74648 22.7542C4.69648 21.7042 3.86523 20.4694 3.25273 19.05C2.64023 17.6306 2.33398 16.1139 2.33398 14.5C2.33398 12.2833 2.91246 10.2368 4.0694 8.36042C5.22635 6.48403 6.79648 5.05 8.77982 4.05833C8.79926 4.42778 8.83815 4.80208 8.89648 5.18125C8.95482 5.56042 9.05204 6.00278 9.18815 6.50833C7.78815 7.36389 6.68468 8.49653 5.87773 9.90625C5.07079 11.316 4.66732 12.8472 4.66732 14.5C4.66732 17.1056 5.57148 19.3125 7.37982 21.1208C9.18815 22.9292 11.3951 23.8333 14.0007 23.8333C16.6062 23.8333 18.8132 22.9292 20.6215 21.1208C22.4298 19.3125 23.334 17.1056 23.334 14.5C23.334 12.8472 22.9305 11.3111 22.1236 9.89167C21.3166 8.47222 20.2034 7.33472 18.784 6.47917C18.9201 5.97361 19.0173 5.53125 19.0757 5.15208C19.134 4.77292 19.1826 4.40833 19.2215 4.05833C21.2048 5.05 22.775 6.47917 23.9319 8.34583C25.0888 10.2125 25.6673 12.2639 25.6673 14.5C25.6673 16.1139 25.3611 17.6306 24.7486 19.05C24.1361 20.4694 23.3048 21.7042 22.2548 22.7542C21.2048 23.8042 19.9701 24.6354 18.5507 25.2479C17.1312 25.8604 15.6145 26.1667 14.0007 26.1667ZM14.0007 21.5C12.0562 21.5 10.4034 20.8194 9.04232 19.4583C7.68121 18.0972 7.00065 16.4444 7.00065 14.5C7.00065 13.3722 7.24857 12.3125 7.7444 11.3208C8.24023 10.3292 8.9451 9.50278 9.85898 8.84167C9.95621 9.13333 10.0632 9.46875 10.1798 9.84792C10.2965 10.2271 10.452 10.6986 10.6465 11.2625C10.2187 11.7097 9.89301 12.2056 9.6694 12.75C9.44579 13.2944 9.33398 13.8778 9.33398 14.5C9.33398 15.7833 9.79093 16.8819 10.7048 17.7958C11.6187 18.7097 12.7173 19.1667 14.0007 19.1667C15.284 19.1667 16.3826 18.7097 17.2965 17.7958C18.2104 16.8819 18.6673 15.7833 18.6673 14.5C18.6673 13.8778 18.5555 13.2944 18.3319 12.75C18.1083 12.2056 17.7826 11.7097 17.3548 11.2625C17.5104 10.7958 17.6513 10.3632 17.7777 9.96458C17.9041 9.56597 18.0159 9.19167 18.1132 8.84167C19.027 9.50278 19.7368 10.3292 20.2423 11.3208C20.7479 12.3125 21.0007 13.3722 21.0007 14.5C21.0007 16.4444 20.3201 18.0972 18.959 19.4583C17.5979 20.8194 15.9451 21.5 14.0007 21.5ZM13.6507 10.4167C13.3979 10.4167 13.1791 10.3438 12.9944 10.1979C12.8097 10.0521 12.6784 9.8625 12.6007 9.62917L11.434 5.8375C11.2979 5.33194 11.2055 4.88958 11.1569 4.51042C11.1083 4.13125 11.084 3.76667 11.084 3.41667C11.084 2.6 11.3659 1.90972 11.9298 1.34583C12.4937 0.781944 13.184 0.5 14.0007 0.5C14.8173 0.5 15.5076 0.781944 16.0715 1.34583C16.6354 1.90972 16.9173 2.6 16.9173 3.41667C16.9173 3.76667 16.893 4.13125 16.8444 4.51042C16.7958 4.88958 16.7034 5.33194 16.5673 5.8375L15.4007 9.62917C15.3229 9.8625 15.1916 10.0521 15.0069 10.1979C14.8222 10.3438 14.6034 10.4167 14.3507 10.4167H13.6507ZM14.0007 16.8333C13.359 16.8333 12.8097 16.6049 12.3527 16.1479C11.8958 15.691 11.6673 15.1417 11.6673 14.5C11.6673 13.8583 11.8958 13.309 12.3527 12.8521C12.8097 12.3951 13.359 12.1667 14.0007 12.1667C14.6423 12.1667 15.1916 12.3951 15.6486 12.8521C16.1055 13.309 16.334 13.8583 16.334 14.5C16.334 15.1417 16.1055 15.691 15.6486 16.1479C15.1916 16.6049 14.6423 16.8333 14.0007 16.8333Z" fill="white"/>
</g>
<defs>
<clipPath id="clip0_715_22034">
<rect width="28" height="28" fill="white" transform="translate(0 0.5)"/>
</clipPath>
</defs>
</svg>
