<svg width="24" height="27" viewBox="0 0 24 27" fill="none" xmlns="http://www.w3.org/2000/svg">
<path d="M12.0007 26.1667C10.3868 26.1667 8.8701 25.8604 7.45065 25.2479C6.03121 24.6354 4.79648 23.8042 3.74648 22.7542C2.69648 21.7042 1.86523 20.4694 1.25273 19.05C0.640234 17.6306 0.333984 16.1139 0.333984 14.5C0.333984 12.2833 0.912457 10.2368 2.0694 8.36042C3.22635 6.48403 4.79648 5.05 6.77982 4.05833C6.79926 4.42778 6.83815 4.80208 6.89648 5.18125C6.95482 5.56042 7.05204 6.00278 7.18815 6.50833C5.78815 7.36389 4.68468 8.49653 3.87773 9.90625C3.07079 11.316 2.66732 12.8472 2.66732 14.5C2.66732 17.1056 3.57148 19.3125 5.37982 21.1208C7.18815 22.9292 9.3951 23.8333 12.0007 23.8333C14.6062 23.8333 16.8132 22.9292 18.6215 21.1208C20.4298 19.3125 21.334 17.1056 21.334 14.5C21.334 12.8472 20.9305 11.3111 20.1236 9.89167C19.3166 8.47222 18.2034 7.33472 16.784 6.47917C16.9201 5.97361 17.0173 5.53125 17.0757 5.15208C17.134 4.77292 17.1826 4.40833 17.2215 4.05833C19.2048 5.05 20.775 6.47917 21.9319 8.34583C23.0888 10.2125 23.6673 12.2639 23.6673 14.5C23.6673 16.1139 23.3611 17.6306 22.7486 19.05C22.1361 20.4694 21.3048 21.7042 20.2548 22.7542C19.2048 23.8042 17.9701 24.6354 16.5507 25.2479C15.1312 25.8604 13.6145 26.1667 12.0007 26.1667ZM12.0007 21.5C10.0562 21.5 8.40343 20.8194 7.04232 19.4583C5.68121 18.0972 5.00065 16.4444 5.00065 14.5C5.00065 13.3722 5.24857 12.3125 5.7444 11.3208C6.24023 10.3292 6.9451 9.50278 7.85898 8.84167C7.95621 9.13333 8.06315 9.46875 8.17982 9.84792C8.29648 10.2271 8.45204 10.6986 8.64648 11.2625C8.21871 11.7097 7.89301 12.2056 7.6694 12.75C7.44579 13.2944 7.33398 13.8778 7.33398 14.5C7.33398 15.7833 7.79093 16.8819 8.70482 17.7958C9.61871 18.7097 10.7173 19.1667 12.0007 19.1667C13.284 19.1667 14.3826 18.7097 15.2965 17.7958C16.2104 16.8819 16.6673 15.7833 16.6673 14.5C16.6673 13.8778 16.5555 13.2944 16.3319 12.75C16.1083 12.2056 15.7826 11.7097 15.3548 11.2625C15.5104 10.7958 15.6513 10.3632 15.7777 9.96458C15.9041 9.56597 16.0159 9.19167 16.1132 8.84167C17.027 9.50278 17.7368 10.3292 18.2423 11.3208C18.7479 12.3125 19.0007 13.3722 19.0007 14.5C19.0007 16.4444 18.3201 18.0972 16.959 19.4583C15.5979 20.8194 13.9451 21.5 12.0007 21.5ZM11.6507 10.4167C11.3979 10.4167 11.1791 10.3438 10.9944 10.1979C10.8097 10.0521 10.6784 9.8625 10.6007 9.62917L9.43398 5.8375C9.29787 5.33194 9.20551 4.88958 9.1569 4.51042C9.10829 4.13125 9.08398 3.76667 9.08398 3.41667C9.08398 2.6 9.36593 1.90972 9.92982 1.34583C10.4937 0.781944 11.184 0.5 12.0007 0.5C12.8173 0.5 13.5076 0.781944 14.0715 1.34583C14.6354 1.90972 14.9173 2.6 14.9173 3.41667C14.9173 3.76667 14.893 4.13125 14.8444 4.51042C14.7958 4.88958 14.7034 5.33194 14.5673 5.8375L13.4007 9.62917C13.3229 9.8625 13.1916 10.0521 13.0069 10.1979C12.8222 10.3438 12.6034 10.4167 12.3507 10.4167H11.6507ZM12.0007 16.8333C11.359 16.8333 10.8097 16.6049 10.3527 16.1479C9.89579 15.691 9.66732 15.1417 9.66732 14.5C9.66732 13.8583 9.89579 13.309 10.3527 12.8521C10.8097 12.3951 11.359 12.1667 12.0007 12.1667C12.6423 12.1667 13.1916 12.3951 13.6486 12.8521C14.1055 13.309 14.334 13.8583 14.334 14.5C14.334 15.1417 14.1055 15.691 13.6486 16.1479C13.1916 16.6049 12.6423 16.8333 12.0007 16.8333Z" fill="white"/>
</svg>
