<svg width="24" height="24" viewBox="0 0 24 24" fill="none" xmlns="http://www.w3.org/2000/svg">
<path d="M7.00049 21C6.45049 21 5.97966 20.8042 5.58799 20.4125C5.19633 20.0208 5.00049 19.55 5.00049 19V6C-1.80985 6 22.9124 6 19.0005 6V19C19.0005 19.55 18.8047 20.0208 18.413 20.4125C18.0213 20.8042 17.5505 21 17.0005 21H7.00049ZM17.0005 6H7.00049V19H17.0005V6ZM10.0005 17C10.2838 17 10.5213 16.9042 10.713 16.7125C10.9047 16.5208 11.0005 16.2833 11.0005 16V9C11.0005 8.71667 10.9047 8.47917 10.713 8.2875C10.5213 8.09583 10.2838 8 10.0005 8C9.71716 8 9.47966 8.09583 9.28799 8.2875C9.09633 8.47917 9.00049 8.71667 9.00049 9V16C9.00049 16.2833 9.09633 16.5208 9.28799 16.7125C9.47966 16.9042 9.71716 17 10.0005 17ZM14.0005 17C14.2838 17 14.5213 16.9042 14.713 16.7125C14.9047 16.5208 15.0005 16.2833 15.0005 16V9C15.0005 8.71667 14.9047 8.47917 14.713 8.2875C14.5213 8.09583 14.2838 8 14.0005 8C13.7172 8 13.4797 8.09583 13.288 8.2875C13.0963 8.47917 13.0005 8.71667 13.0005 9V16C13.0005 16.2833 13.0963 16.5208 13.288 16.7125C13.4797 16.9042 13.7172 17 14.0005 17Z" fill="#F15454"/>
<path d="M5 6C4.66667 6 4 5.8 4 5C4 4.2 4.66667 4 5 4H9C9 3.66667 9.2 3 10 3H14C14.3333 3 15 3.2 15 4H19C19.3333 4 20 4.2 20 5C20 5.8 19.3333 6 19 6H5Z" fill="#F15454" stroke="#F15454" stroke-width="0.1"/>
</svg>
