<svg width="48" height="48" viewBox="0 0 48 48" fill="none" xmlns="http://www.w3.org/2000/svg">
<rect x="0.25" y="0.25" width="47.5" height="47.5" rx="3.75" fill="white"/>
<rect x="0.25" y="0.25" width="47.5" height="47.5" rx="3.75" stroke="#ADADAD" stroke-width="0.5"/>
<path d="M23.3838 31.5C23.1325 31.5 22.9222 31.4153 22.753 31.2461C22.5838 31.0769 22.4992 30.8666 22.4992 30.6153V24.8269L16.9011 17.7154C16.7088 17.459 16.6809 17.1923 16.8175 16.9154C16.954 16.6385 17.1844 16.5 17.5088 16.5H30.4895C30.8138 16.5 31.0443 16.6385 31.1808 16.9154C31.3173 17.1923 31.2895 17.459 31.0972 17.7154L25.4991 24.8269V30.6153C25.4991 30.8666 25.4145 31.0769 25.2453 31.2461C25.076 31.4153 24.8658 31.5 24.6145 31.5H23.3838ZM23.9991 24.3L28.9491 18H19.0491L23.9991 24.3Z" fill="#777777"/>
</svg>
