<svg width="24" height="25" viewBox="0 0 24 25" fill="none" xmlns="http://www.w3.org/2000/svg">
<path d="M24 11.4455V23.0018C24 23.5322 23.7893 24.0409 23.4142 24.416C23.0391 24.7911 22.5304 25.0018 22 25.0018H17C16.4696 25.0018 15.9609 24.7911 15.5858 24.416C15.2107 24.0409 15 23.5322 15 23.0018V18.0018C15 17.7366 14.8946 17.4822 14.7071 17.2947C14.5196 17.1071 14.2652 17.0018 14 17.0018H10C9.73478 17.0018 9.48043 17.1071 9.29289 17.2947C9.10536 17.4822 9 17.7366 9 18.0018V23.0018C9 23.5322 8.78929 24.0409 8.41421 24.416C8.03914 24.7911 7.53043 25.0018 7 25.0018H2C1.46957 25.0018 0.960859 24.7911 0.585786 24.416C0.210714 24.0409 2.31098e-08 23.5322 2.31098e-08 23.0018V11.4455C-4.20536e-05 11.1687 0.057374 10.8949 0.168614 10.6415C0.279855 10.388 0.442497 10.1604 0.64625 9.97303L10.6462 0.53803L10.66 0.52428C11.0282 0.189447 11.508 0.00390625 12.0056 0.00390625C12.5033 0.00390625 12.9831 0.189447 13.3512 0.52428C13.3555 0.529171 13.3601 0.533765 13.365 0.53803L23.365 9.97303C23.5667 10.1614 23.7273 10.3894 23.8365 10.6429C23.9458 10.8963 24.0015 11.1696 24 11.4455Z" fill="white"/>
</svg>
