<svg width="24" height="24" viewBox="0 0 24 24" fill="none" xmlns="http://www.w3.org/2000/svg">
<path d="M10 23C10 23.2652 9.89464 23.5196 9.70711 23.7071C9.51957 23.8946 9.26522 24 9 24H2C1.46957 24 0.960859 23.7893 0.585786 23.4142C0.210714 23.0391 0 22.5304 0 22V2C0 1.46957 0.210714 0.960859 0.585786 0.585786C0.960859 0.210714 1.46957 0 2 0H9C9.26522 0 9.51957 0.105357 9.70711 0.292893C9.89464 0.48043 10 0.734784 10 1C10 1.26522 9.89464 1.51957 9.70711 1.70711C9.51957 1.89464 9.26522 2 9 2H2V22H9C9.26522 22 9.51957 22.1054 9.70711 22.2929C9.89464 22.4804 10 22.7348 10 23ZM23.7075 11.2925L18.7075 6.2925C18.5676 6.15249 18.3894 6.05712 18.1953 6.01847C18.0012 5.97982 17.8 5.99963 17.6172 6.07538C17.4344 6.15113 17.2782 6.27942 17.1683 6.44402C17.0584 6.60861 16.9998 6.8021 17 7V11H9C8.73478 11 8.48043 11.1054 8.29289 11.2929C8.10536 11.4804 8 11.7348 8 12C8 12.2652 8.10536 12.5196 8.29289 12.7071C8.48043 12.8946 8.73478 13 9 13H17V17C16.9998 17.1979 17.0584 17.3914 17.1683 17.556C17.2782 17.7206 17.4344 17.8489 17.6172 17.9246C17.8 18.0004 18.0012 18.0202 18.1953 17.9815C18.3894 17.9429 18.5676 17.8475 18.7075 17.7075L23.7075 12.7075C23.8005 12.6146 23.8742 12.5043 23.9246 12.3829C23.9749 12.2615 24.0008 12.1314 24.0008 12C24.0008 11.8686 23.9749 11.7385 23.9246 11.6171C23.8742 11.4957 23.8005 11.3854 23.7075 11.2925Z" fill="white"/>
</svg>
