<svg width="26" height="26" viewBox="0 0 26 26" fill="none" xmlns="http://www.w3.org/2000/svg">
<path fill-rule="evenodd" clip-rule="evenodd" d="M16.0552 7.42692C15.1507 6.82257 14.0873 6.5 12.9995 6.5C11.5409 6.5 10.1419 7.07946 9.11046 8.11091C8.07901 9.14236 7.49954 10.5413 7.49954 12C7.49954 13.0878 7.82211 14.1512 8.42646 15.0556C9.03081 15.9601 9.88979 16.6651 10.8948 17.0813C11.8998 17.4976 13.0056 17.6065 14.0725 17.3943C15.1394 17.1821 16.1194 16.6583 16.8886 15.8891C17.6578 15.1199 18.1816 14.1399 18.3939 13.073C18.6061 12.0061 18.4972 10.9002 18.0809 9.89524C17.6646 8.89025 16.9597 8.03127 16.0552 7.42692ZM24.6258 18.804C25.8584 16.3413 26.2764 13.5507 25.8195 10.835C25.799 10.7045 25.7527 10.5794 25.6835 10.4669C25.6143 10.3544 25.5235 10.2567 25.4163 10.1795C25.3091 10.1023 25.1877 10.047 25.059 10.017C24.9304 9.987 24.797 9.98277 24.6668 10.0046C24.5365 10.0264 24.4118 10.0738 24.2999 10.144C24.188 10.2143 24.0912 10.306 24.015 10.4139C23.9388 10.5218 23.8847 10.6437 23.8559 10.7726C23.827 10.9016 23.824 11.0349 23.847 11.165C23.9486 11.7714 23.9996 12.3852 23.9995 13C24.0009 15.6932 23.0098 18.2925 21.2158 20.3013C20.4873 19.2467 19.5625 18.3423 18.492 17.6375C18.4007 17.577 18.2921 17.5481 18.1828 17.5553C18.0735 17.5626 17.9696 17.6055 17.887 17.6775C16.5284 18.8531 14.7918 19.5001 12.9952 19.5001C11.1985 19.5001 9.46195 18.8531 8.1033 17.6775C8.02086 17.6058 7.91719 17.563 7.80816 17.5558C7.69912 17.5486 7.59072 17.5773 7.49954 17.6375C6.43009 18.3423 5.50657 19.2468 4.77954 20.3013C2.98686 18.292 1.99717 15.6927 1.99954 13C2.00081 11.4005 2.35061 9.82049 3.02459 8.36993C3.69858 6.91937 4.68056 5.63309 5.90219 4.60062C7.12383 3.56816 8.55578 2.8143 10.0984 2.39151C11.641 1.96872 13.2572 1.88716 14.8345 2.1525C15.0949 2.19359 15.361 2.13019 15.5749 1.97611C15.7888 1.82203 15.9332 1.58972 15.9767 1.32973C16.0202 1.06973 15.9593 0.803074 15.8072 0.587764C15.6551 0.372453 15.4241 0.225906 15.1645 0.18C12.4488 -0.276856 9.65822 0.141168 7.19559 1.37372C4.73295 2.60627 2.72575 4.58956 1.46377 7.03725C0.201801 9.48493 -0.249638 12.2703 0.17464 14.9913C0.598918 17.7123 1.87696 20.228 3.82423 22.1753C5.7715 24.1226 8.28724 25.4006 11.0082 25.8249C13.7292 26.2492 16.5146 25.7977 18.9623 24.5358C21.41 23.2738 23.3933 21.2666 24.6258 18.804Z" fill="#4364D0"/>
</svg>
