<svg width="33" height="32" viewBox="0 0 33 32" fill="none" xmlns="http://www.w3.org/2000/svg">
<path d="M22.5 25.668C23.5222 25.668 24.3889 25.318 25.1 24.618C25.8111 23.918 26.1667 23.0457 26.1667 22.0013C26.1667 20.9791 25.8111 20.1124 25.1 19.4013C24.3889 18.6902 23.5222 18.3346 22.5 18.3346C21.4556 18.3346 20.5833 18.6902 19.8833 19.4013C19.1833 20.1124 18.8333 20.9791 18.8333 22.0013C18.8333 23.0457 19.1833 23.918 19.8833 24.618C20.5833 25.318 21.4556 25.668 22.5 25.668ZM29.3 30.2013L25.7333 26.668C25.2667 26.9791 24.7611 27.2235 24.2167 27.4013C23.6722 27.5791 23.1 27.668 22.5 27.668C20.9222 27.668 19.5833 27.118 18.4833 26.018C17.3833 24.918 16.8333 23.5791 16.8333 22.0013C16.8333 20.4457 17.3833 19.1124 18.4833 18.0013C19.5833 16.8902 20.9222 16.3346 22.5 16.3346C24.0556 16.3346 25.3889 16.8902 26.5 18.0013C27.6111 19.1124 28.1667 20.4457 28.1667 22.0013C28.1667 22.6235 28.0722 23.2069 27.8833 23.7513C27.6944 24.2957 27.4444 24.8013 27.1333 25.268L30.6667 28.8013L29.3 30.2013ZM6.5 29.3346C5.96667 29.3346 5.5 29.1346 5.1 28.7346C4.7 28.3346 4.5 27.868 4.5 27.3346V4.66797C4.5 4.13464 4.7 3.66797 5.1 3.26797C5.5 2.86797 5.96667 2.66797 6.5 2.66797H18.5333L25.8333 9.96797V15.1013C25.3 14.8569 24.7556 14.668 24.2 14.5346C23.6444 14.4013 23.0778 14.3346 22.5 14.3346C21.5667 14.3346 20.6944 14.4791 19.8833 14.768C19.0722 15.0569 18.3444 15.468 17.7 16.0013H9.8V18.0013H15.9667C15.6333 18.5346 15.3722 19.1124 15.1833 19.7346C14.9944 20.3569 14.8778 21.0013 14.8333 21.668H9.8V23.668H15C15.3111 25.0013 15.9278 26.1791 16.85 27.2013C17.7722 28.2235 18.9 28.9346 20.2333 29.3346H6.5ZM17.5333 10.868H23.8333L17.5333 4.66797V10.868Z" fill="white"/>
<g clip-path="url(#clip0_715_9231)">
<path d="M23.978 23.4761L24.1548 23.6528C23.9912 23.8164 23.7261 23.8164 23.5625 23.6528L22.7225 22.8128C22.6249 22.7152 22.4666 22.7152 22.369 22.8128L21.529 23.6528C21.3654 23.8164 21.1003 23.8164 20.9367 23.6528C20.7732 23.4893 20.7732 23.2241 20.9367 23.0606M23.978 23.4761L20.9367 23.0606M23.978 23.4761L24.1548 23.6528C24.3183 23.4893 24.3183 23.2241 24.1548 23.0606L23.3148 22.2206C23.2172 22.1229 23.2172 21.9647 23.3148 21.867L24.1548 21.027C24.3183 20.8635 24.3183 20.5983 24.1548 20.4348C23.9912 20.2712 23.7261 20.2712 23.5625 20.4348L22.7225 21.2748C22.6249 21.3724 22.4666 21.3724 22.369 21.2748L21.529 20.4348C21.3654 20.2712 21.1003 20.2712 20.9367 20.4348C20.7732 20.5983 20.7732 20.8635 20.9367 21.027L21.7767 21.867C21.8743 21.9647 21.8743 22.1229 21.7767 22.2206L20.9367 23.0606M23.978 23.4761L20.9367 23.0606" fill="white" stroke="white" stroke-width="0.5"/>
</g>
<defs>
<clipPath id="clip0_715_9231">
<rect width="5.45622" height="5.45622" fill="white" transform="translate(19.8184 19.3164)"/>
</clipPath>
</defs>
</svg>
