<svg width="18" height="6" viewBox="0 0 18 6" fill="none" xmlns="http://www.w3.org/2000/svg">
<path d="M2.81681 5.08951C2.24121 5.08951 1.74861 4.88489 1.33901 4.47566C0.929409 4.06644 0.724609 3.5745 0.724609 2.99983C0.724609 2.42193 0.929218 1.92918 1.33843 1.52158C1.74767 1.11396 2.23962 0.910156 2.81428 0.910156C3.39058 0.910156 3.88393 1.11396 4.29433 1.52158C4.70473 1.92918 4.90993 2.42093 4.90993 2.99683C4.90993 3.57275 4.70498 4.06551 4.29508 4.47511C3.88518 4.88471 3.39243 5.08951 2.81681 5.08951ZM9.00261 5.08951C8.42669 5.08951 7.93394 4.88489 7.52434 4.47566C7.11474 4.06644 6.90993 3.5745 6.90993 2.99983C6.90993 2.42193 7.11455 1.92918 7.52379 1.52158C7.933 1.11396 8.42494 0.910156 8.99961 0.910156C9.57751 0.910156 10.0703 1.11396 10.4779 1.52158C10.8855 1.92918 11.0893 2.42093 11.0893 2.99683C11.0893 3.57275 10.8855 4.06551 10.4779 4.47511C10.0703 4.88471 9.57851 5.08951 9.00261 5.08951ZM15.1866 5.08951C14.6099 5.08951 14.1161 4.88489 13.7054 4.47566C13.2947 4.06644 13.0893 3.5745 13.0893 2.99983C13.0893 2.42193 13.2947 1.92918 13.7054 1.52158C14.1161 1.11396 14.6099 0.910156 15.1866 0.910156C15.7634 0.910156 16.2556 1.11396 16.6632 1.52158C17.0708 1.92918 17.2746 2.42093 17.2746 2.99683C17.2746 3.57275 17.0708 4.06551 16.6632 4.47511C16.2556 4.88471 15.7634 5.08951 15.1866 5.08951Z" fill="#777777"/>
</svg>
