<svg width="28" height="19" viewBox="0 0 28 19" fill="none" xmlns="http://www.w3.org/2000/svg">
<path d="M28 14.0012V17.0012C28 17.5316 27.7893 18.0403 27.4142 18.4154C27.0391 18.7905 26.5304 19.0012 26 19.0012H12.4913C12.399 19.0013 12.3086 18.9758 12.2299 18.9277C12.1512 18.8795 12.0874 18.8106 12.0455 18.7284C12.0036 18.6463 11.9852 18.5541 11.9924 18.4622C11.9996 18.3702 12.0321 18.2821 12.0863 18.2074L19.7838 7.62618C19.9433 7.41425 20.0146 7.14878 19.9827 6.88543C19.9507 6.62209 19.8181 6.38134 19.6125 6.21368C19.5067 6.13162 19.3856 6.07163 19.2562 6.03727C19.1268 6.00291 18.9918 5.99487 18.8593 6.01364C18.7268 6.03241 18.5993 6.0776 18.4846 6.14653C18.3698 6.21546 18.2701 6.30673 18.1912 6.41493L9.19125 18.7974C9.14407 18.8616 9.08226 18.9135 9.01094 18.949C8.93963 18.9844 8.86088 19.0023 8.78125 19.0012H2C1.46957 19.0012 0.960859 18.7905 0.585786 18.4154C0.210714 18.0403 0 17.5316 0 17.0012V14.1424C0 13.9187 -1.04308e-07 13.6962 0.0162499 13.4762C0.0226692 13.348 0.0781683 13.2271 0.17125 13.1387C0.264331 13.0503 0.387862 13.001 0.51625 13.0012H4C4.13709 13.0015 4.27277 12.9736 4.39863 12.9192C4.52448 12.8649 4.63782 12.7853 4.7316 12.6853C4.82538 12.5853 4.8976 12.4671 4.94377 12.338C4.98994 12.2089 5.00908 12.0717 5 11.9349C4.97788 11.6773 4.85889 11.4377 4.66704 11.2644C4.47519 11.0911 4.22475 10.9971 3.96625 11.0012H0.99C0.913723 11.0011 0.83847 10.9836 0.77 10.95C0.701531 10.9164 0.641662 10.8675 0.594974 10.8072C0.548286 10.7469 0.516018 10.6767 0.50064 10.602C0.485262 10.5273 0.487181 10.45 0.50625 10.3762C2.00625 4.89618 6.71375 0.73493 12.4462 0.09118C12.5163 0.0836065 12.5871 0.0909157 12.6541 0.112629C12.7211 0.134342 12.7828 0.16997 12.8351 0.217177C12.8874 0.264383 12.9291 0.322104 12.9575 0.386557C12.9859 0.45101 13.0004 0.520741 13 0.59118V4.00118C12.9997 4.13827 13.0276 4.27395 13.0819 4.39981C13.1363 4.52566 13.2159 4.639 13.3159 4.73278C13.4159 4.82656 13.5341 4.89878 13.6632 4.94495C13.7923 4.99112 13.9295 5.01026 14.0662 5.00118C14.3238 4.97906 14.5634 4.86007 14.7367 4.66822C14.91 4.47637 15.0041 4.22593 15 3.96743V0.58493C14.9996 0.51449 15.0141 0.44476 15.0425 0.380307C15.0709 0.315854 15.1126 0.258133 15.1649 0.210926C15.2172 0.163719 15.2789 0.128093 15.3459 0.106379C15.4129 0.0846658 15.4837 0.0773561 15.5537 0.0849296C18.3524 0.399417 20.9915 1.54932 23.1274 3.38489C25.2633 5.22047 26.797 7.65664 27.5287 10.3762C27.5478 10.4501 27.5497 10.5275 27.5343 10.6023C27.5189 10.6771 27.4865 10.7474 27.4396 10.8077C27.3928 10.8681 27.3328 10.9169 27.2642 10.9504C27.1955 10.9839 27.1201 11.0013 27.0438 11.0012H24.0338C23.7757 10.9977 23.5259 11.0921 23.3345 11.2653C23.1432 11.4385 23.0246 11.6778 23.0025 11.9349C22.9934 12.0717 23.0126 12.2089 23.0587 12.338C23.1049 12.4671 23.1771 12.5853 23.2709 12.6853C23.3647 12.7853 23.478 12.8649 23.6039 12.9192C23.7297 12.9736 23.8654 13.0015 24.0025 13.0012H27.4925C27.6221 13.0011 27.7467 13.0514 27.84 13.1414C27.9333 13.2314 27.988 13.3541 27.9925 13.4837C28 13.6549 28 13.8274 28 14.0012Z" fill="white"/>
</svg>
