<svg width="68" height="68" viewBox="0 0 68 68" fill="none" xmlns="http://www.w3.org/2000/svg">
<circle cx="34" cy="34" r="33.5" fill="#FFF7F7"/>
<path d="M26.416 47.25C25.6368 47.25 24.9698 46.9726 24.415 46.4177C23.8601 45.8628 23.5827 45.1958 23.5827 44.4167V26C23.1813 26 22.8448 25.8642 22.5733 25.5927C22.3018 25.3212 22.166 24.9847 22.166 24.5833C22.166 24.1819 22.3018 23.8455 22.5733 23.574C22.8448 23.3024 23.1813 23.1667 23.5827 23.1667H29.2493C29.2493 22.7653 29.3851 22.4288 29.6566 22.1573C29.9282 21.8858 30.2646 21.75 30.666 21.75H36.3327C36.7341 21.75 37.0705 21.8858 37.3421 22.1573C37.6136 22.4288 37.7493 22.7653 37.7493 23.1667H43.416C43.8174 23.1667 44.1539 23.3024 44.4254 23.574C44.6969 23.8455 44.8327 24.1819 44.8327 24.5833C44.8327 24.9847 44.6969 25.3212 44.4254 25.5927C44.1539 25.8642 43.8174 26 43.416 26V44.4167C43.416 45.1958 43.1386 45.8628 42.5837 46.4177C42.0289 46.9726 41.3618 47.25 40.5827 47.25H26.416ZM30.666 41.5833C31.0674 41.5833 31.4039 41.4476 31.6754 41.176C31.9469 40.9045 32.0827 40.5681 32.0827 40.1667V30.25C32.0827 29.8486 31.9469 29.5122 31.6754 29.2406C31.4039 28.9691 31.0674 28.8333 30.666 28.8333C30.2646 28.8333 29.9282 28.9691 29.6566 29.2406C29.3851 29.5122 29.2493 29.8486 29.2493 30.25V40.1667C29.2493 40.5681 29.3851 40.9045 29.6566 41.176C29.9282 41.4476 30.2646 41.5833 30.666 41.5833ZM36.3327 41.5833C36.7341 41.5833 37.0705 41.4476 37.3421 41.176C37.6136 40.9045 37.7493 40.5681 37.7493 40.1667V30.25C37.7493 29.8486 37.6136 29.5122 37.3421 29.2406C37.0705 28.9691 36.7341 28.8333 36.3327 28.8333C35.9313 28.8333 35.5948 28.9691 35.3233 29.2406C35.0518 29.5122 34.916 29.8486 34.916 30.25V40.1667C34.916 40.5681 35.0518 40.9045 35.3233 41.176C35.5948 41.4476 35.9313 41.5833 36.3327 41.5833Z" fill="#F15454"/>
</svg>
