<svg width="28" height="26" viewBox="0 0 28 26" fill="none" xmlns="http://www.w3.org/2000/svg">
<path d="M27.7427 10.3999C27.7149 10.2591 27.657 10.1259 27.5731 10.0095C27.4892 9.89299 27.3812 9.79594 27.2565 9.72492L23.5277 7.59992L23.5127 3.39742C23.5123 3.25269 23.4804 3.10978 23.4193 2.97857C23.3583 2.84735 23.2694 2.73096 23.159 2.63742C21.8064 1.4933 20.2488 0.616507 18.569 0.053674C18.4367 0.00889883 18.2965 -0.00767129 18.1574 0.00503092C18.0184 0.0177331 17.8835 0.059426 17.7615 0.127424L14.0002 2.22992L10.2352 0.123674C10.1132 0.055293 9.97813 0.0132853 9.83882 0.000366264C9.69951 -0.0125528 9.55904 0.00390439 9.42649 0.0486739C7.7477 0.615121 6.19179 1.49531 4.84149 2.64242C4.7312 2.73582 4.64246 2.85201 4.58139 2.983C4.52032 3.11399 4.48837 3.25665 4.48774 3.40117L4.46899 7.60742L0.740238 9.73242C0.61549 9.80344 0.507494 9.90049 0.42359 10.017C0.339686 10.1334 0.281842 10.2666 0.253988 10.4074C-0.0872668 12.1223 -0.0872668 13.8876 0.253988 15.6024C0.281842 15.7432 0.339686 15.8764 0.42359 15.9929C0.507494 16.1094 0.61549 16.2064 0.740238 16.2774L4.46899 18.4024L4.48399 22.6062C4.48444 22.7509 4.51631 22.8938 4.57738 23.025C4.63846 23.1562 4.72729 23.2726 4.83774 23.3662C6.19033 24.5103 7.74793 25.3871 9.42774 25.9499C9.56002 25.9947 9.70022 26.0113 9.8393 25.9986C9.97838 25.9859 10.1133 25.9442 10.2352 25.8762L14.0002 23.7674L17.7652 25.8737C17.9142 25.9567 18.0822 25.9998 18.2527 25.9987C18.362 25.9986 18.4704 25.9809 18.574 25.9462C20.2524 25.38 21.8082 24.5007 23.159 23.3549C23.2693 23.2615 23.358 23.1453 23.4191 23.0143C23.4802 22.8834 23.5121 22.7407 23.5127 22.5962L23.5315 18.3899L27.2602 16.2649C27.385 16.1939 27.493 16.0969 27.5769 15.9804C27.6608 15.8639 27.7186 15.7307 27.7465 15.5899C28.0858 13.8764 28.0846 12.1129 27.7427 10.3999ZM14.0002 17.9987C13.0113 17.9987 12.0446 17.7054 11.2224 17.156C10.4001 16.6066 9.75928 15.8257 9.38084 14.9121C9.0024 13.9985 8.90338 12.9931 9.09631 12.0232C9.28924 11.0533 9.76544 10.1624 10.4647 9.46314C11.164 8.76388 12.0549 8.28767 13.0248 8.09475C13.9947 7.90182 15 8.00084 15.9137 8.37928C16.8273 8.75771 17.6082 9.39858 18.1576 10.2208C18.707 11.0431 19.0002 12.0098 19.0002 12.9987C19.0002 14.3248 18.4735 15.5965 17.5358 16.5342C16.5981 17.4719 15.3263 17.9987 14.0002 17.9987Z" fill="white"/>
</svg>
