<svg width="20" height="20" viewBox="0 0 20 20" fill="none" xmlns="http://www.w3.org/2000/svg">
<path d="M8.82547 20C8.37547 20 7.98797 19.85 7.66297 19.55C7.33797 19.25 7.14214 18.8833 7.07547 18.45L6.85047 16.8C6.6338 16.7167 6.42964 16.6167 6.23797 16.5C6.0463 16.3833 5.8588 16.2583 5.67547 16.125L4.12547 16.775C3.7088 16.9583 3.29214 16.975 2.87547 16.825C2.4588 16.675 2.1338 16.4083 1.90047 16.025L0.725469 13.975C0.492135 13.5917 0.425469 13.1833 0.525469 12.75C0.625469 12.3167 0.850469 11.9583 1.20047 11.675L2.52547 10.675C2.5088 10.5583 2.50047 10.4458 2.50047 10.3375V9.6625C2.50047 9.55417 2.5088 9.44167 2.52547 9.325L1.20047 8.325C0.850469 8.04167 0.625469 7.68333 0.525469 7.25C0.425469 6.81667 0.492135 6.40833 0.725469 6.025L1.90047 3.975C2.1338 3.59167 2.4588 3.325 2.87547 3.175C3.29214 3.025 3.7088 3.04167 4.12547 3.225L5.67547 3.875C5.8588 3.74167 6.05047 3.61667 6.25047 3.5C6.45047 3.38333 6.65047 3.28333 6.85047 3.2L7.07547 1.55C7.14214 1.11667 7.33797 0.75 7.66297 0.45C7.98797 0.15 8.37547 0 8.82547 0H11.1755C11.6255 0 12.013 0.15 12.338 0.45C12.663 0.75 12.8588 1.11667 12.9255 1.55L13.1505 3.2C13.3671 3.28333 13.5713 3.38333 13.763 3.5C13.9546 3.61667 14.1421 3.74167 14.3255 3.875L15.8755 3.225C16.2921 3.04167 16.7088 3.025 17.1255 3.175C17.5421 3.325 17.8671 3.59167 18.1005 3.975L19.2755 6.025C19.5088 6.40833 19.5755 6.81667 19.4755 7.25C19.3755 7.68333 19.1505 8.04167 18.8005 8.325L17.4755 9.325C17.4921 9.44167 17.5005 9.55417 17.5005 9.6625V10.3375C17.5005 10.4458 17.4838 10.5583 17.4505 10.675L18.7755 11.675C19.1255 11.9583 19.3505 12.3167 19.4505 12.75C19.5505 13.1833 19.4838 13.5917 19.2505 13.975L18.0505 16.025C17.8171 16.4083 17.4921 16.675 17.0755 16.825C16.6588 16.975 16.2421 16.9583 15.8255 16.775L14.3255 16.125C14.1421 16.2583 13.9505 16.3833 13.7505 16.5C13.5505 16.6167 13.3505 16.7167 13.1505 16.8L12.9255 18.45C12.8588 18.8833 12.663 19.25 12.338 19.55C12.013 19.85 11.6255 20 11.1755 20H8.82547ZM9.00047 18H10.9755L11.3255 15.35C11.8421 15.2167 12.3213 15.0208 12.763 14.7625C13.2046 14.5042 13.6088 14.1917 13.9755 13.825L16.4505 14.85L17.4255 13.15L15.2755 11.525C15.3588 11.2917 15.4171 11.0458 15.4505 10.7875C15.4838 10.5292 15.5005 10.2667 15.5005 10C15.5005 9.73333 15.4838 9.47083 15.4505 9.2125C15.4171 8.95417 15.3588 8.70833 15.2755 8.475L17.4255 6.85L16.4505 5.15L13.9755 6.2C13.6088 5.81667 13.2046 5.49583 12.763 5.2375C12.3213 4.97917 11.8421 4.78333 11.3255 4.65L11.0005 2H9.02547L8.67547 4.65C8.1588 4.78333 7.67964 4.97917 7.23797 5.2375C6.7963 5.49583 6.39214 5.80833 6.02547 6.175L3.55047 5.15L2.57547 6.85L4.72547 8.45C4.64214 8.7 4.5838 8.95 4.55047 9.2C4.51714 9.45 4.50047 9.71667 4.50047 10C4.50047 10.2667 4.51714 10.525 4.55047 10.775C4.5838 11.025 4.64214 11.275 4.72547 11.525L2.57547 13.15L3.55047 14.85L6.02547 13.8C6.39214 14.1833 6.7963 14.5042 7.23797 14.7625C7.67964 15.0208 8.1588 15.2167 8.67547 15.35L9.00047 18ZM10.0505 13.5C11.0171 13.5 11.8421 13.1583 12.5255 12.475C13.2088 11.7917 13.5505 10.9667 13.5505 10C13.5505 9.03333 13.2088 8.20833 12.5255 7.525C11.8421 6.84167 11.0171 6.5 10.0505 6.5C9.06713 6.5 8.23797 6.84167 7.56297 7.525C6.88797 8.20833 6.55047 9.03333 6.55047 10C6.55047 10.9667 6.88797 11.7917 7.56297 12.475C8.23797 13.1583 9.06713 13.5 10.0505 13.5Z" fill="#6F6F6F"/>
</svg>
