<svg width="34" height="22" viewBox="0 0 34 22" fill="none" xmlns="http://www.w3.org/2000/svg">
<path d="M32.5 21.9999C32.925 21.9999 33.2812 21.8561 33.5687 21.5685C33.8563 21.2808 34 20.9244 34 20.4993C34 20.0741 33.8563 19.7179 33.5687 19.4307C33.2812 19.1435 32.925 19 32.5 19H11.077C10.652 19 10.2957 19.1438 10.0082 19.4314C9.72075 19.719 9.577 20.0754 9.577 20.5006C9.577 20.9258 9.72075 21.2819 10.0082 21.5691C10.2957 21.8563 10.652 21.9999 11.077 21.9999H32.5ZM3.1616 19.0422L9.9577 12.2653C10.3192 11.9038 10.5 11.482 10.5 11C10.5 10.5179 10.3192 10.0961 9.9577 9.7346L3.1616 2.9769C2.88467 2.7 2.5366 2.55833 2.1174 2.5519C1.69817 2.5455 1.34368 2.68717 1.05395 2.9769C0.764214 3.26663 0.619347 3.61792 0.619347 4.03075C0.619347 4.44355 0.764214 4.79482 1.05395 5.08455L7.02705 11L1.05395 16.9346C0.764214 17.2072 0.619347 17.5542 0.619347 17.9756C0.619347 18.3969 0.764214 18.7525 1.05395 19.0422C1.32658 19.3191 1.67358 19.4576 2.09495 19.4576C2.51632 19.4576 2.87187 19.3191 3.1616 19.0422ZM32.5 12.4999C32.925 12.4999 33.2812 12.3561 33.5687 12.0685C33.8563 11.7809 34 11.4245 34 10.9993C34 10.5741 33.8563 10.2179 33.5687 9.93075C33.2812 9.64358 32.925 9.5 32.5 9.5H16.9231C16.4981 9.5 16.1419 9.6438 15.8544 9.9314C15.5669 10.219 15.4232 10.5754 15.4232 11.0006C15.4232 11.4258 15.5669 11.782 15.8544 12.0692C16.1419 12.3563 16.4981 12.4999 16.9231 12.4999H32.5ZM32.5 2.99995C32.925 2.99995 33.2812 2.85613 33.5687 2.5685C33.8563 2.2809 34 1.9245 34 1.4993C34 1.07413 33.8563 0.717968 33.5687 0.430801C33.2812 0.143601 32.925 0 32.5 0H11.077C10.652 0 10.2957 0.143818 10.0082 0.431451C9.72075 0.719085 9.577 1.07548 9.577 1.50065C9.577 1.92585 9.72075 2.28204 10.0082 2.5692C10.2957 2.85637 10.652 2.99995 11.077 2.99995H32.5Z" fill="white"/>
</svg>
