<svg width="28" height="29" viewBox="0 0 28 29" fill="none" xmlns="http://www.w3.org/2000/svg">
<path d="M5.83333 26.1654C5.19167 26.1654 4.64236 25.9369 4.18542 25.4799C3.72847 25.023 3.5 24.4737 3.5 23.832V7.4987C3.5 6.85703 3.72847 6.30773 4.18542 5.85078C4.64236 5.39384 5.19167 5.16536 5.83333 5.16536H7V3.9987C7 3.66814 7.11181 3.39106 7.33542 3.16745C7.55903 2.94384 7.83611 2.83203 8.16667 2.83203C8.49722 2.83203 8.77431 2.94384 8.99792 3.16745C9.22153 3.39106 9.33333 3.66814 9.33333 3.9987V5.16536H18.6667V3.9987C18.6667 3.66814 18.7785 3.39106 19.0021 3.16745C19.2257 2.94384 19.5028 2.83203 19.8333 2.83203C20.1639 2.83203 20.441 2.94384 20.6646 3.16745C20.8882 3.39106 21 3.66814 21 3.9987V5.16536H22.1667C22.8083 5.16536 23.3576 5.39384 23.8146 5.85078C24.2715 6.30773 24.5 6.85703 24.5 7.4987V12.9529C24.5 13.2834 24.3882 13.5605 24.1646 13.7841C23.941 14.0077 23.6639 14.1195 23.3333 14.1195C23.0028 14.1195 22.7257 14.0077 22.5021 13.7841C22.2785 13.5605 22.1667 13.2834 22.1667 12.9529V12.1654H5.83333V23.832H12.6C12.9306 23.832 13.2076 23.9438 13.4312 24.1674C13.6549 24.3911 13.7667 24.6681 13.7667 24.9987C13.7667 25.3293 13.6549 25.6063 13.4312 25.8299C13.2076 26.0536 12.9306 26.1654 12.6 26.1654H5.83333ZM21 27.332C19.3861 27.332 18.0104 26.7633 16.8729 25.6258C15.7354 24.4883 15.1667 23.1126 15.1667 21.4987C15.1667 19.8848 15.7354 18.5091 16.8729 17.3716C18.0104 16.2341 19.3861 15.6654 21 15.6654C22.6139 15.6654 23.9896 16.2341 25.1271 17.3716C26.2646 18.5091 26.8333 19.8848 26.8333 21.4987C26.8333 23.1126 26.2646 24.4883 25.1271 25.6258C23.9896 26.7633 22.6139 27.332 21 27.332ZM21.5833 21.2654V18.582C21.5833 18.4265 21.525 18.2904 21.4083 18.1737C21.2917 18.057 21.1556 17.9987 21 17.9987C20.8444 17.9987 20.7083 18.057 20.5917 18.1737C20.475 18.2904 20.4167 18.4265 20.4167 18.582V21.2362C20.4167 21.3918 20.4458 21.5424 20.5042 21.6883C20.5625 21.8341 20.65 21.9654 20.7667 22.082L22.5458 23.8612C22.6625 23.9779 22.7986 24.0362 22.9542 24.0362C23.1097 24.0362 23.2458 23.9779 23.3625 23.8612C23.4792 23.7445 23.5375 23.6084 23.5375 23.4529C23.5375 23.2973 23.4792 23.1612 23.3625 23.0445L21.5833 21.2654Z" fill="white"/>
</svg>
