<svg width="169" height="34" viewBox="0 0 169 34" fill="none" xmlns="http://www.w3.org/2000/svg">
<path d="M53.5723 0.269531H59.062L62.9627 26.6839H63.1794L67.08 0.269531H72.5698L66.0687 33.5922H59.9288L53.5723 0.269531Z" fill="#4264D0"/>
<path d="M76.0352 0.269531H89.1817V4.26554H81.3805V14.2217H87.3759V18.2177H81.3805V29.664H89.3984V33.66H76.0352V0.269531Z" fill="#4264D0"/>
<path d="M93.3027 0.269531H106.449V4.26554H98.6481V14.2217H104.643V18.2177H98.6481V29.664H106.666V33.66H93.3027V0.269531Z" fill="#4264D0"/>
<path d="M110.564 0.269531H116.415C120.46 0.269531 127.178 0.743634 127.178 9.81933V10.6321C127.178 15.7118 125.589 18.895 122.555 20.2496L128.262 33.5922H122.555L117.86 21.1301H115.838V33.5922H110.564V0.269531ZM116.704 17.4727C120.46 17.4727 121.833 16.0504 121.833 11.5126V8.87112C121.833 5.41694 120.677 3.9269 116.704 3.9269H115.91V17.4727H116.704Z" fill="#4264D0"/>
<path d="M131.584 22.8924H135.773V24.5179C135.773 28.1076 136.64 30.0717 139.241 30.0717C141.263 30.0717 142.419 28.988 142.419 26.9562C142.419 24.8566 141.913 23.6375 139.891 21.2669L134.256 15.0359C132.306 12.6653 131.15 10.2948 131.15 7.51793C131.15 3.11554 134.112 0 139.313 0C145.597 0 147.475 3.65737 147.475 7.04383C147.475 8.46614 147.186 9.5498 146.897 11.0398H142.708V9.48207C142.708 5.96016 141.696 3.99602 139.241 3.99602C137.218 3.99602 136.207 5.14741 136.207 6.90836C136.207 8.80478 136.857 9.82072 137.868 11.1076L144.152 18.2191C146.464 20.996 147.692 23.4343 147.692 26.2789C147.692 31.0199 144.441 34 139.241 34C132.812 34 131.006 30.4781 131.006 26.9562C131.006 25.3984 131.223 24.247 131.584 22.8924Z" fill="#4264D0"/>
<path d="M156.214 0.269531H162.426L168.999 33.5922H163.509L162.498 27.6321H155.997L155.058 33.5922H149.568L156.214 0.269531ZM161.92 23.7715L159.392 7.1779H159.175L156.647 23.7715H161.92Z" fill="#4264D0"/>
<path d="M30.5116 24.0457L24.3806 33.6864L0 0.29083L13.2161 0.246094L30.5116 24.0457Z" fill="#4264D0"/>
<path d="M32.1816 0.246094L39.4338 10.1552L45.4932 0.246094H32.1816Z" fill="#6E6F74"/>
</svg>
